<svg width="360" height="364" viewBox="0 0 360 364" fill="none" xmlns="http://www.w3.org/2000/svg">
<path d="M135.264 329.965C209.443 329.965 269.577 269.831 269.577 195.652C269.577 121.473 209.443 61.339 135.264 61.339C61.085 61.339 0.950989 121.473 0.950989 195.652C0.950989 269.831 61.085 329.965 135.264 329.965Z" fill="url(#paint0_radial_176_436)"/>
<path d="M213.654 292.801C294.468 292.801 359.98 227.289 359.98 146.475C359.98 65.6614 294.468 0.149048 213.654 0.149048C132.84 0.149048 67.328 65.6614 67.328 146.475C67.328 227.289 132.84 292.801 213.654 292.801Z" fill="url(#paint1_radial_176_436)"/>
<g filter="url(#filter0_i_176_436)">
<path d="M221.066 169.077H215.332C213.818 169.05 212.373 168.436 211.303 167.365C210.232 166.293 209.62 164.848 209.594 163.334C209.594 159.448 208.828 155.601 207.34 152.011C205.852 148.421 203.672 145.16 200.924 142.413C198.176 139.666 194.914 137.487 191.324 136C187.733 134.514 183.886 133.749 180 133.75H162.339C154.492 133.75 146.967 136.867 141.418 142.415C135.869 147.962 132.751 155.487 132.75 163.334V198.666C132.751 206.513 135.869 214.038 141.418 219.585C146.967 225.133 154.492 228.25 162.339 228.25H197.666C205.513 228.249 213.038 225.131 218.585 219.582C224.133 214.033 227.25 206.508 227.25 198.661V175.257C227.269 174.439 227.123 173.627 226.819 172.868C226.515 172.109 226.06 171.42 225.482 170.842C224.903 170.264 224.214 169.81 223.455 169.506C222.695 169.203 221.883 169.057 221.066 169.077ZM161.898 157.595H183.092C186.184 157.595 188.831 160.242 188.831 163.334C188.831 166.426 186.185 169.082 183.098 169.082H161.888C160.373 169.055 158.928 168.442 157.858 167.37C156.787 166.299 156.175 164.853 156.149 163.339C156.149 160.247 158.801 157.601 161.888 157.601M198.097 204.41H162.339C160.824 204.384 159.378 203.771 158.306 202.699C157.235 201.628 156.621 200.182 156.595 198.666C156.595 195.574 159.247 192.928 162.339 192.928H198.107C201.194 192.928 203.845 195.574 203.845 198.666C203.845 201.758 201.194 204.41 198.107 204.41" fill="#FBBF24"/>
</g>
<defs>
<filter id="filter0_i_176_436" x="114" y="118" width="130" height="130" filterUnits="userSpaceOnUse" color-interpolation-filters="sRGB">
<feFlood flood-opacity="0" result="BackgroundImageFix"/>
<feBlend mode="normal" in="SourceGraphic" in2="BackgroundImageFix" result="shape"/>
<feColorMatrix in="SourceAlpha" type="matrix" values="0 0 0 0 0 0 0 0 0 0 0 0 0 0 0 0 0 0 127 0" result="hardAlpha"/>
<feOffset dx="-2" dy="2"/>
<feGaussianBlur stdDeviation="3"/>
<feComposite in2="hardAlpha" operator="arithmetic" k2="-1" k3="1"/>
<feColorMatrix type="matrix" values="0 0 0 0 0 0 0 0 0 0 0 0 0 0 0 0 0 0 0.25 0"/>
<feBlend mode="normal" in2="shape" result="effect1_innerShadow_176_436"/>
</filter>
<radialGradient id="paint0_radial_176_436" cx="0" cy="0" r="1" gradientUnits="userSpaceOnUse" gradientTransform="translate(135.264 195.652) rotate(90) scale(134.313)">
<stop stop-color="#C9991D" stop-opacity="0.5"/>
<stop offset="1" stop-color="#C9991D" stop-opacity="0"/>
</radialGradient>
<radialGradient id="paint1_radial_176_436" cx="0" cy="0" r="1" gradientUnits="userSpaceOnUse" gradientTransform="translate(213.654 146.475) rotate(90) scale(146.326)">
<stop stop-color="#FFD466" stop-opacity="0.5"/>
<stop offset="1" stop-color="#FFD466" stop-opacity="0"/>
</radialGradient>
</defs>
</svg>
