<svg width="128" height="128" viewBox="0 0 128 128" fill="none" xmlns="http://www.w3.org/2000/svg">
<g filter="url(#filter0_i_176_375)">
<path d="M105.066 51.0773H99.3325C97.8182 51.0503 96.3735 50.4363 95.303 49.3648C94.2325 48.2934 93.6199 46.8481 93.5942 45.3338C93.5936 41.4481 92.8275 37.6006 91.3399 34.0109C89.8523 30.4213 87.6722 27.1598 84.9241 24.4127C82.176 21.6656 78.9138 19.4867 75.3236 18.0003C71.7335 16.514 67.8857 15.7493 64 15.75H46.339C38.4924 15.75 30.9671 18.8667 25.4183 24.4146C19.8694 29.9624 16.7514 37.4872 16.75 45.3338V80.6662C16.7514 88.5128 19.8694 96.0376 25.4183 101.585C30.9671 107.133 38.4924 110.25 46.339 110.25H81.6662C89.5128 110.249 97.0376 107.131 102.585 101.582C108.133 96.0329 111.25 88.5076 111.25 80.661V57.2565C111.269 56.4393 111.123 55.6266 110.819 54.8678C110.515 54.1089 110.06 53.4197 109.482 52.8419C108.903 52.2642 108.214 51.8098 107.455 51.5065C106.695 51.2031 105.883 51.0571 105.066 51.0773ZM45.898 39.5955H67.0922C70.1845 39.5955 72.8305 42.2415 72.8305 45.3338C72.8305 48.426 70.1845 51.0825 67.0975 51.0825H45.8875C44.3732 51.0555 42.9285 50.4416 41.858 49.3701C40.7875 48.2986 40.1749 46.8534 40.1492 45.339C40.1492 42.2467 42.8005 39.6008 45.8875 39.6008M82.0967 86.4097H46.339C44.8237 86.3841 43.3777 85.7707 42.3061 84.6991C41.2345 83.6275 40.6212 82.1815 40.5955 80.6662C40.5955 77.574 43.2467 74.928 46.339 74.928H82.1073C85.1943 74.928 87.8455 77.574 87.8455 80.6662C87.8455 83.7585 85.1943 86.4097 82.1073 86.4097" fill="#FBBF24"/>
</g>
<defs>
<filter id="filter0_i_176_375" x="-2" y="0" width="130" height="130" filterUnits="userSpaceOnUse" color-interpolation-filters="sRGB">
<feFlood flood-opacity="0" result="BackgroundImageFix"/>
<feBlend mode="normal" in="SourceGraphic" in2="BackgroundImageFix" result="shape"/>
<feColorMatrix in="SourceAlpha" type="matrix" values="0 0 0 0 0 0 0 0 0 0 0 0 0 0 0 0 0 0 127 0" result="hardAlpha"/>
<feOffset dx="-2" dy="2"/>
<feGaussianBlur stdDeviation="3"/>
<feComposite in2="hardAlpha" operator="arithmetic" k2="-1" k3="1"/>
<feColorMatrix type="matrix" values="0 0 0 0 0 0 0 0 0 0 0 0 0 0 0 0 0 0 0.25 0"/>
<feBlend mode="normal" in2="shape" result="effect1_innerShadow_176_375"/>
</filter>
</defs>
</svg>
